<?xml version="1.0" standalone="no"?>
<!DOCTYPE svg PUBLIC "-//W3C//DTD SVG 20010904//EN"
 "http://www.w3.org/TR/2001/REC-SVG-20010904/DTD/svg10.dtd">
<svg version="1.0" xmlns="http://www.w3.org/2000/svg"
 width="1020.000000pt" height="1020.000000pt" viewBox="0 0 1020.000000 1020.000000"
 preserveAspectRatio="xMidYMid meet">
<metadata>
Created by potrace 1.14, written by Peter Selinger 2001-2017
</metadata>
<g transform="translate(0.000000,1020.000000) scale(0.100000,-0.100000)"
fill="#000000" stroke="none">
<path d="M7165 10158 c-38 -33 -60 -66 -97 -145 -26 -56 -48 -109 -48 -118 0
-8 -5 -15 -12 -15 -6 0 -9 -3 -5 -6 3 -3 -5 -30 -18 -60 -13 -30 -24 -57 -24
-59 0 -3 -9 -31 -21 -63 -12 -31 -23 -64 -25 -72 -2 -8 -10 -35 -18 -60 -18
-52 -39 -126 -44 -154 -2 -11 -11 -47 -19 -80 -9 -34 -18 -72 -20 -86 -3 -14
-7 -36 -10 -50 -6 -30 -13 -70 -23 -125 l-7 -40 -74 2 c-95 3 -245 11 -245 13
0 2 -251 9 -508 14 -131 3 -242 8 -247 11 -5 3 -11 1 -15 -5 -4 -6 -11 -7 -17
-4 -9 6 -80 8 -103 4 -5 -1 -14 -1 -20 0 -10 2 -75 3 -85 1 -3 -1 -125 -3
-271 -5 -147 -2 -271 -6 -278 -10 -6 -4 -11 -2 -11 4 0 6 -5 8 -11 4 -6 -3
-54 -7 -108 -8 -53 -2 -102 -6 -108 -9 -7 -4 -14 -3 -18 3 -4 6 -11 8 -16 4
-5 -3 -51 -7 -102 -9 -101 -4 -256 -14 -327 -20 -25 -2 -88 -7 -140 -11 -52
-3 -113 -8 -135 -10 -22 -2 -71 -5 -110 -8 -38 -3 -70 -6 -70 -7 0 0 -20 -3
-45 -5 -61 -4 -145 -13 -145 -14 0 0 -25 -3 -55 -5 -30 -2 -68 -6 -85 -9 -16
-3 -58 -8 -92 -11 l-61 -6 -12 38 c-6 21 -15 47 -20 58 -5 11 -15 40 -23 65
-23 68 -51 139 -81 202 -14 32 -27 61 -27 65 -1 5 -9 19 -18 33 -9 14 -22 36
-29 50 -21 43 -67 120 -84 139 -9 11 -22 30 -29 43 -7 12 -17 28 -23 34 -6 7
-21 25 -33 41 -26 34 -109 118 -153 154 -84 70 -208 103 -260 70 -27 -18 -63
-51 -55 -51 3 0 -5 -21 -19 -47 -13 -27 -27 -64 -32 -83 -4 -19 -9 -39 -10
-45 -5 -16 -16 -68 -20 -95 -3 -14 -6 -34 -8 -45 -27 -143 -42 -380 -51 -790
-3 -137 -8 -338 -10 -445 -3 -107 -7 -284 -9 -393 -2 -109 -7 -201 -10 -204
-3 -3 -1 -13 4 -23 5 -10 7 -20 3 -23 -3 -4 -6 -48 -7 -99 -2 -103 -2 -103
-81 -163 -22 -16 -46 -36 -55 -45 -9 -8 -40 -35 -70 -60 -56 -46 -333 -320
-405 -401 -35 -39 -101 -117 -145 -172 -8 -11 -20 -25 -27 -32 -10 -11 -189
-258 -213 -295 -5 -8 -21 -32 -35 -53 -14 -21 -25 -42 -25 -47 0 -6 -3 -10 -8
-10 -4 0 -18 -21 -32 -47 -13 -27 -27 -50 -30 -53 -14 -12 -209 -383 -216
-410 -1 -6 -26 -64 -53 -125 -20 -43 -45 -107 -46 -115 -1 -3 -8 -21 -16 -40
-15 -32 -124 -368 -129 -395 -1 -3 -6 -19 -11 -37 -6 -18 -12 -44 -15 -58 -6
-34 -10 -51 -33 -150 -11 -47 -23 -105 -27 -130 -3 -25 -7 -49 -8 -55 -1 -10
-5 -10 159 -19 66 -3 158 -9 204 -12 46 -3 122 -7 170 -9 47 -2 129 -7 181
-10 145 -9 273 -15 297 -15 15 0 37 -21 74 -73 29 -39 56 -73 61 -75 4 -2 8
-8 8 -14 0 -5 6 -15 13 -22 6 -7 21 -25 32 -41 11 -15 28 -36 38 -47 9 -10 17
-21 17 -24 0 -3 16 -22 35 -42 19 -20 35 -40 35 -43 0 -4 12 -20 28 -37 15
-16 47 -53 72 -82 25 -29 68 -78 95 -109 73 -81 371 -378 439 -436 32 -27 72
-63 90 -80 17 -16 65 -57 106 -90 92 -73 104 -83 143 -117 18 -15 35 -28 39
-28 4 0 18 -10 32 -23 14 -12 60 -47 103 -77 43 -30 80 -58 81 -62 2 -5 8 -8
13 -8 6 0 34 -18 63 -40 29 -22 57 -40 63 -40 5 0 18 -9 28 -20 10 -11 22 -20
26 -20 4 0 35 -18 68 -40 33 -22 62 -40 65 -40 3 0 24 -13 48 -29 24 -15 70
-43 103 -61 33 -18 90 -50 128 -71 37 -21 67 -35 67 -31 0 4 4 2 8 -4 7 -10
253 -133 337 -169 22 -9 48 -21 58 -26 9 -5 43 -19 75 -31 31 -11 62 -24 67
-28 6 -4 28 -13 50 -20 22 -7 58 -21 80 -31 36 -15 272 -99 366 -128 53 -17
96 -11 174 25 39 17 75 33 80 35 27 10 170 94 173 101 2 4 8 8 13 8 11 0 163
93 167 103 2 4 10 7 18 7 8 0 14 5 14 10 0 6 7 10 15 10 8 0 15 5 15 10 0 6 7
10 15 10 8 0 15 5 15 10 0 6 4 10 10 10 7 0 181 118 225 152 6 5 53 39 105 75
52 37 104 75 114 85 11 10 23 18 27 18 3 0 22 13 40 30 19 16 37 30 41 30 4 0
13 6 20 13 7 7 40 33 73 57 33 24 62 47 65 50 3 4 23 19 45 33 22 15 35 27 30
27 -5 0 7 12 28 27 20 14 37 30 37 35 0 4 4 8 10 8 5 0 20 10 33 23 32 30 174
157 208 186 15 13 48 42 72 65 25 22 100 93 168 156 158 147 561 550 704 705
61 65 124 133 141 151 17 18 60 66 95 106 35 40 74 83 87 96 12 12 22 27 22
32 0 6 4 10 8 10 14 0 125 163 138 203 4 9 9 17 13 17 4 0 25 39 48 88 78 170
85 190 61 176 -9 -5 -10 -4 -3 3 19 19 410 142 565 178 8 1 44 11 79 20 35 9
77 18 92 20 16 2 33 6 38 10 6 3 23 8 38 10 16 2 71 13 123 25 52 11 111 23
130 26 66 10 71 13 63 42 -3 15 -13 37 -21 50 -8 12 -12 22 -9 22 3 0 -8 28
-25 63 -28 58 -49 105 -53 117 -15 58 -331 605 -364 630 -12 10 -51 69 -51 79
0 5 -3 11 -7 13 -5 2 -39 44 -76 93 -65 85 -126 160 -172 211 -11 12 -50 55
-86 96 -107 118 -375 377 -400 387 -6 1 -21 13 -33 25 -13 11 -36 32 -52 46
-36 31 -245 187 -296 220 -27 18 -38 33 -38 50 -1 33 -6 99 -14 180 -4 36 -8
85 -11 110 -10 121 -22 240 -29 310 -3 19 -7 64 -10 100 -4 36 -8 72 -11 80
-2 8 -6 45 -10 81 -3 36 -8 76 -10 90 -5 26 -13 98 -20 169 -3 25 -7 59 -9 75
-3 17 -8 48 -11 70 -3 22 -8 56 -11 75 -2 19 -7 53 -9 75 -7 56 -14 106 -20
135 -3 14 -7 43 -10 65 -3 22 -7 51 -10 65 -3 14 -7 41 -10 60 -2 19 -6 46 -9
60 -6 29 -16 92 -21 135 -3 17 -12 73 -21 125 -9 52 -18 104 -19 115 -7 43
-16 89 -20 96 -3 4 -6 26 -7 48 -1 23 -5 41 -9 41 -5 0 -6 6 -3 14 7 19 -34
103 -59 121 -35 24 -61 18 -112 -27z m548 -4792 c-7 -312 -6 -299 -28 -321
-11 -11 -66 -62 -122 -112 -160 -144 -229 -210 -487 -469 -309 -308 -479 -488
-735 -779 -205 -234 -453 -492 -632 -656 -109 -101 -141 -130 -208 -189 -41
-36 -83 -71 -94 -79 -12 -8 -28 -22 -37 -30 -27 -26 -72 -64 -120 -100 -25
-19 -53 -42 -62 -50 -21 -20 -33 -29 -83 -66 -22 -17 -42 -32 -45 -35 -3 -3
-30 -23 -60 -45 -60 -44 -74 -54 -95 -73 -20 -17 -33 -15 -46 9 -21 39 -127
149 -194 200 -16 13 -36 29 -44 37 -31 30 -171 132 -180 132 -6 0 -11 4 -11
10 0 5 -15 17 -33 26 -17 9 -34 20 -37 23 -11 13 -99 71 -108 71 -6 0 -12 3
-14 8 -3 7 -96 77 -129 97 -45 27 -174 119 -177 127 -2 4 -10 8 -17 8 -7 0
-15 4 -17 8 -1 5 -25 23 -53 42 -27 19 -55 39 -62 45 -7 5 -53 39 -103 75 -88
62 -183 132 -225 165 -11 8 -45 34 -75 56 -30 22 -62 45 -70 52 -9 7 -45 34
-80 62 -77 59 -250 196 -266 210 -6 5 -26 23 -45 39 -182 157 -319 283 -492
454 -185 182 -258 263 -249 275 4 7 8 144 7 305 0 162 2 295 5 297 6 4 56 11
130 20 25 3 59 8 75 11 17 3 48 7 70 10 22 2 58 6 80 9 22 2 63 7 90 10 28 3
61 7 75 10 14 3 48 7 75 10 28 2 64 7 80 9 17 3 59 8 95 12 36 3 76 8 90 10
14 2 54 6 90 9 36 2 76 7 90 9 14 3 52 8 85 11 33 3 83 7 110 10 28 3 68 8 90
10 22 2 40 4 40 5 0 2 127 12 167 13 21 1 38 4 38 7 0 3 15 5 33 6 17 0 70 4
117 8 47 4 105 9 130 11 25 2 70 6 100 9 30 2 93 7 140 11 47 4 101 8 120 10
19 2 78 6 130 10 52 4 115 8 139 10 111 10 251 18 303 19 32 1 58 3 58 6 0 3
30 6 68 6 37 1 117 4 177 8 509 29 765 39 1260 51 143 4 261 8 262 8 1 1 208
2 461 3 l459 1 -4 -191z"/>
<path d="M5050 5269 c-140 -26 -272 -104 -301 -177 -31 -78 5 -153 104 -222
39 -28 76 -50 81 -49 5 0 12 -4 15 -9 3 -5 39 -26 79 -46 54 -27 79 -35 100
-30 28 7 67 30 90 51 7 7 17 13 21 13 4 0 32 25 62 56 77 80 79 82 79 92 0 5
6 15 14 21 21 18 53 121 49 160 -9 96 -88 143 -248 146 -55 1 -120 -2 -145 -6z"/>
<path d="M5762 4540 c-12 -16 -22 -33 -22 -39 0 -5 -11 -19 -25 -32 -13 -13
-25 -27 -25 -31 0 -10 -32 -47 -87 -104 -122 -125 -265 -153 -388 -76 -44 28
-111 97 -120 125 -4 9 -10 17 -15 17 -4 0 -10 10 -13 23 -4 12 -12 30 -20 41
-13 18 -17 15 -63 -45 -50 -66 -109 -129 -121 -129 -4 0 -16 -8 -27 -19 -28
-25 -111 -67 -141 -71 -3 -1 -19 -7 -37 -14 -62 -25 -206 -15 -245 17 -7 5
-13 7 -13 3 0 -10 -146 61 -207 100 -32 21 -99 80 -150 132 -72 73 -96 92
-111 88 -24 -8 -35 -42 -18 -59 30 -32 51 -78 68 -151 21 -90 22 -93 31 -121
3 -11 8 -31 11 -45 10 -55 98 -308 137 -395 12 -27 21 -51 21 -52 -2 -3 61
-125 76 -147 4 -6 7 -13 7 -16 1 -13 98 -157 131 -195 14 -16 33 -39 43 -50
54 -68 195 -153 281 -169 3 -1 10 -4 15 -7 10 -7 104 -20 160 -24 41 -2 134
18 173 39 82 43 155 147 186 264 23 91 8 344 -31 492 -3 14 -7 30 -9 35 -13
58 -66 191 -105 267 -16 32 -29 60 -29 62 0 2 15 -10 33 -27 32 -30 134 -83
178 -93 160 -34 334 68 502 296 54 73 65 103 47 125 -20 24 -54 18 -78 -15z"/>
<path d="M9530 4785 c-19 -12 -89 -56 -155 -96 -66 -41 -124 -77 -130 -81 -27
-22 -87 -58 -95 -58 -4 0 -10 -3 -12 -7 -1 -5 -43 -35 -93 -68 -103 -69 -110
-74 -136 -97 -10 -10 -19 -16 -19 -13 0 4 -272 -197 -340 -252 -70 -55 -328
-269 -341 -282 -9 -9 -45 -41 -80 -71 -106 -92 -301 -291 -380 -390 -55 -68
-102 -171 -114 -250 -2 -8 -6 -37 -11 -65 -9 -56 -18 -2835 -9 -2835 10 0 205
135 270 187 6 5 30 24 55 43 25 19 47 37 50 40 6 6 110 94 155 131 41 34 321
313 375 375 25 28 61 70 80 93 19 23 43 52 54 64 10 12 44 56 75 97 31 41 59
76 64 78 4 2 7 10 7 17 0 7 4 15 9 17 12 4 178 253 186 278 4 11 11 20 16 20
5 0 9 7 9 15 0 8 3 15 8 15 4 0 15 17 25 38 9 20 35 69 57 107 42 73 85 161
145 293 20 42 40 86 45 97 66 144 163 430 221 655 11 41 22 84 25 95 3 11 7
31 9 45 2 14 6 36 9 50 20 91 28 132 41 228 3 20 8 48 11 62 4 22 8 55 18 157
2 17 7 36 10 42 4 6 3 11 -3 11 -7 0 -7 9 -3 23 11 29 16 140 16 362 0 262
-16 464 -55 690 -6 33 -13 74 -15 92 -2 17 -7 40 -11 51 -8 19 -9 19 -43 -3z"/>
<path d="M525 3718 c5 -91 12 -167 20 -243 3 -27 8 -66 10 -85 2 -19 6 -46 9
-60 3 -14 7 -43 10 -65 3 -22 8 -53 11 -70 3 -16 8 -40 10 -53 2 -12 6 -30 9
-40 3 -9 8 -31 10 -47 10 -65 42 -196 82 -330 8 -27 16 -57 18 -65 2 -8 20
-62 41 -120 20 -58 37 -109 39 -115 9 -37 42 -115 48 -115 5 0 8 -9 8 -20 0
-11 9 -36 21 -57 11 -20 23 -46 25 -56 9 -47 195 -400 307 -582 22 -35 152
-230 164 -245 6 -8 50 -64 97 -125 46 -60 100 -127 119 -148 19 -20 33 -37 32
-37 -9 0 85 -99 227 -239 140 -140 180 -178 268 -251 14 -12 40 -35 57 -51 18
-16 35 -29 39 -29 4 0 23 -15 44 -32 48 -42 100 -82 113 -87 5 -2 18 -11 28
-20 34 -31 49 -42 49 -36 0 3 12 -6 27 -20 15 -14 33 -25 40 -25 7 0 13 -3 13
-7 0 -5 12 -15 28 -24 15 -9 74 -45 132 -81 58 -35 131 -78 162 -95 l56 -31
-3 26 c-3 15 -7 38 -10 52 -12 53 -26 126 -31 155 -2 17 -6 39 -8 50 -10 48
-66 323 -70 350 -3 17 -8 41 -11 55 -3 14 -8 36 -11 50 -2 14 -9 48 -14 75 -6
28 -12 60 -15 73 -2 13 -7 31 -9 40 -3 10 -8 31 -10 47 -2 17 -7 46 -10 65 -4
19 -9 44 -11 55 -2 11 -4 21 -5 23 -2 1 -3 10 -4 20 -1 9 -7 42 -14 72 -6 30
-14 66 -16 80 -2 14 -9 47 -15 74 -7 27 -9 51 -6 54 2 3 1 10 -4 16 -5 6 -11
27 -14 46 -3 19 -8 49 -12 65 -3 17 -10 55 -16 85 -6 30 -14 73 -19 95 -5 22
-12 54 -15 70 -4 17 -9 43 -11 59 -2 15 -6 37 -9 47 -4 11 -8 32 -10 47 -2 15
-9 50 -15 77 -16 78 -18 87 -24 130 -4 22 -8 47 -11 55 -4 14 -15 67 -20 100
-1 8 -5 22 -8 30 -3 8 -5 22 -5 30 0 8 -8 51 -17 95 -9 44 -18 89 -20 100 -2
11 -8 40 -14 65 -5 25 -13 61 -16 80 -3 19 -12 67 -20 105 -8 39 -16 81 -19
95 -2 14 -7 36 -10 50 -3 14 -8 36 -10 50 -22 126 -39 197 -50 208 -6 7 -48
25 -92 41 -43 16 -128 47 -189 69 -60 22 -139 51 -175 64 -36 12 -68 27 -72
33 -4 5 -8 7 -8 3 0 -6 -75 18 -160 50 -14 5 -27 10 -30 10 -4 0 -41 13 -105
38 -11 4 -23 8 -27 9 -5 2 -10 4 -13 5 -3 1 -8 3 -12 5 -5 1 -15 5 -23 8 -47
19 -396 131 -515 165 -146 42 -214 58 -277 68 l-38 5 5 -83z"/>
</g>
</svg>
