<svg width="25" height="30" fill="none" xmlns="http://www.w3.org/2000/svg">
  <path d="M19.291 9.33a1.086 1.086 0 1 1-2.172-.002 1.086 1.086 0 0 1 2.172.002ZM8.418 9.33a1.086 1.086 0 1 1-2.172-.002 1.086 1.086 0 0 1 2.172.002ZM8.418 22.351a1.086 1.086 0 1 1-2.177-.002 1.086 1.086 0 0 1 2.177.002ZM13.855 24.521a1.086 1.086 0 1 1-2.177-.002 1.086 1.086 0 0 1 2.177.003ZM5.157 15.775c0 .6-.487 1.085-1.088 1.085a1.086 1.086 0 1 1 1.088-1.085ZM22.553 15.775a1.086 1.086 0 1 1-2.177-.002 1.086 1.086 0 0 1 2.177.002ZM19.291 22.351a1.086 1.086 0 1 1-2.177-.002 1.086 1.086 0 0 1 2.177.002Z" fill="#fff" />
  <path fill-rule="evenodd" clip-rule="evenodd" d="M17.922 27.058a1.058 1.058 0 0 1 1.216.196l1.826 1.875a.682.682 0 0 0 .977-.95l-1.357-1.394c-.426-.438-.361-1.15.098-1.552C23.324 22.92 25 19.47 25 15.614 25 8.648 19.523 3 12.768 3 6.012 3 .536 8.648.536 15.614c0 3.815 1.641 7.234 4.236 9.547.452.403.513 1.11.09 1.544l-1.434 1.473a.682.682 0 1 0 .976.951l1.88-1.93a1.058 1.058 0 0 1 1.226-.191 11.878 11.878 0 0 0 5.258 1.221c1.841 0 3.587-.42 5.154-1.17Zm-5.154-.23c6.005 0 10.873-5.02 10.873-11.213S18.773 4.402 12.768 4.402c-6.005 0-10.873 5.02-10.873 11.212 0 6.193 4.868 11.213 10.873 11.213Zm-.76-18.887a.781.781 0 1 1 1.563 0v8.182c0 .443-.36.803-.803.803a.76.76 0 0 1-.76-.76V7.941Z" fill="#fff" />
  <path fill-rule="evenodd" clip-rule="evenodd" d="M6.284 27.199c.131-.135.293-.226.467-.271.247-.065.518-.039.76.08a11.883 11.883 0 0 0 5.258 1.221 11.886 11.886 0 0 0 5.153-1.17 1.1 1.1 0 0 1 .673-.093c.202.037.393.134.544.288l1.825 1.875a.682.682 0 0 0 .977-.95l-1.357-1.394a1.007 1.007 0 0 1-.284-.662 1.114 1.114 0 0 1 .382-.89 12.48 12.48 0 0 0 1.047-1.032A12.786 12.786 0 0 0 25 15.614C25 8.648 19.523 3 12.768 3 6.012 3 .536 8.648.536 15.614c0 3.275 1.21 6.258 3.193 8.5.327.37.675.72 1.043 1.047a1.126 1.126 0 0 1 .371.927c-.02.225-.112.443-.281.617l-1.434 1.473a.682.682 0 1 0 .976.951l1.88-1.93ZM4.9 23.355a10.857 10.857 0 0 0 4.247 2.836c1.132.412 2.35.636 3.62.636a10.56 10.56 0 0 0 4.55-1.026 10.847 10.847 0 0 0 3.246-2.37 11.36 11.36 0 0 0 3.077-7.817c0-4.775-2.894-8.852-6.973-10.47a10.557 10.557 0 0 0-3.878-.742h-.022c-1.352 0-2.646.254-3.84.719-4.11 1.6-7.033 5.695-7.033 10.493 0 3.002 1.144 5.729 3.006 7.741Zm8.67-15.414a.781.781 0 0 0-1.563 0v8.225c0 .42.34.76.76.76a.803.803 0 0 0 .803-.803V7.94Z" fill="#fff" />
  <path d="M12 4V0h1.5v4H12Z" fill="#fff" />
  <path d="M5 .75A.75.75 0 0 1 5.75 0h14a.75.75 0 0 1 0 1.5h-14A.75.75 0 0 1 5 .75Z" fill="#fff" />
</svg>
