<svg width="29" height="33" fill="none" xmlns="http://www.w3.org/2000/svg">
  <path d="M20.776 19.473c-1.706 0-3.088 1.478-3.088 3.301 0 1.824 1.383 3.302 3.088 3.302 1.706 0 3.088-1.478 3.088-3.302 0-1.823-1.383-3.3-3.088-3.3Zm0 5.013c-.884 0-1.6-.766-1.6-1.71 0-.947.716-1.713 1.6-1.713.884 0 1.602.766 1.602 1.712 0 .945-.718 1.711-1.602 1.711ZM11.607.99C9.847.99 8.42 2.515 8.42 4.397c0 1.882 1.426 3.407 3.187 3.407 1.76 0 3.187-1.524 3.187-3.407S13.367.99 11.607.99Zm0 5.476c-1.07 0-1.936-.926-1.936-2.07 0-1.142.866-2.069 1.935-2.069 1.07 0 1.936.927 1.936 2.07 0 1.143-.866 2.069-1.936 2.069ZM8.227 18.61c-1.294 0-2.341 1.12-2.341 2.503s1.047 2.503 2.34 2.503c1.295 0 2.342-1.12 2.342-2.503 0-1.382-1.047-2.503-2.341-2.503ZM8 20.5c-.459 0 1.158 1.104 1.158.613 0-.49-1.617.387-1.158.387.459 0 1.057-.878 1.057-.388S8.459 20.5 8 20.5ZM18.5 10.763s3.04-.839 6.178 1.493c.907.76 1.765 1.337 1.152 2.123-.343.34-.637.657-1.716-.524-1.054-.76-2.72-1.898-5.614-1.442-1.128.237-1.961.551-3.556 2.15-1.593 1.598-3.972 2.725-6.497 2.489-2.525-.236-3.849-1.258-5.246-2.542-.294-.42-.294-.865-.123-1.127.171-.262.833-.524 1.201-.132.368.394 2.109 1.966 3.825 2.07 1.716.105 3.433.21 5.737-1.965 2.306-2.174 3.458-2.331 4.66-2.593Z" fill="#fff" />
  <path d="M28.646 27.816V9.157c0-.578-.374-.65-.524-.655h-.506c-.493 0-.536.557-.538.739V9.3c.002 3.609.01 18.253-.002 18.54a2.681 2.681 0 0 1-.82 1.887c-.809.695-1.618.603-1.618.603s-20.177 0-20.655-.026c-.38-.066-1.042-.21-1.606-1.01-.564-.799-.453-1.847-.453-1.847V9.315c0-.839-.675-.812-.675-.812H.942c-.536 0-.585.588-.588.776v18.537c0 1.337.453 2.398 1.548 3.337 1.094.939 2.375.856 2.375.856s19.723 0 20.581-.002c.859-.003 1.986-.417 2.916-1.555.93-1.14.872-2.637.872-2.637Z" fill="#fff" />
  <path fill-rule="evenodd" clip-rule="evenodd" d="M26.255 29.728c-.553.476-1.107.583-1.401.603-.136.01-.216 0-.216 0s-17.81 0-20.361-.022h-.11a6.467 6.467 0 0 1-.184-.004 2.327 2.327 0 0 1-1.012-.398c-.2-.143-.403-.34-.594-.611a2.448 2.448 0 0 1-.374-.857 3.359 3.359 0 0 1-.085-.623c-.01-.223.006-.368.006-.368V9.315a1.442 1.442 0 0 0 0-.036c-.02-.802-.675-.776-.675-.776H.942c-.536 0-.585.588-.588.776v18.537c0 .23.013.453.041.668.083.64.295 1.214.66 1.744.223.323.504.63.847.925a3.615 3.615 0 0 0 1.986.841c.24.025.389.015.389.015s17.183 0 20.17-.002H24.858c.72-.002 1.626-.293 2.449-1.056a4.887 4.887 0 0 0 .467-.5c.537-.657.744-1.435.824-1.974a4.39 4.39 0 0 0 .048-.576V9.157c0-.578-.374-.65-.524-.655h-.506c-.432 0-.519.427-.535.655l-.003.084v.06l.001 1.651c.002 5.051.007 16.21-.002 16.864v.025l-.002.035a2.922 2.922 0 0 1-.085.594c-.073.289-.21.627-.466.96-.078.1-.167.2-.269.298Zm1.867-1.892.524-.02-.524.02Z" fill="#fff" />
</svg>
